# xmcd
#
# Track frame offsets:
#	150
#	18267
#	39602
#	62565
#	86375
#	107500
#	116917
#	143085
#	155427
#	177392
#	199517
#	219795
#	242452
#
# Disc length: 3716 seconds
#
# Revision: 4
# Processed by: cddbd v1.5PL3 Copyright (c) Steve Scherf et al.
# Submitted via: EasyCDDAExtractor 5.0.0.0
#
DISCID=a10e820d
DTITLE=Willard Grant Conspiracy - Mojave
DYEAR=1999
DGENRE=Rock
TTITLE0=Another Lonely Night
TTITLE1=Color Of The Sun
TTITLE2=The Work Song
TTITLE3=How To Get To Heaven
TTITLE4=Archy's Lullaby
TTITLE5=Go Jimmy Go
TTITLE6=I Miss You Best
TTITLE7=Cat Nap In The Boom Boom Room
TTITLE8=Front Porch
TTITLE9=Love Has No Meaning
TTITLE10=Sticky
TTITLE11=Right On Time
TTITLE12=The Visitor
EXTD=© 1999, Rykodisc.
EXTT0=
EXTT1=
EXTT2=
EXTT3=
EXTT4=
EXTT5=
EXTT6=
EXTT7=
EXTT8=
EXTT9=
EXTT10=
EXTT11=
EXTT12=
PLAYORDER=
